<svg width="425" height="426" viewBox="0 0 425 426" fill="none" xmlns="http://www.w3.org/2000/svg">
<g clip-path="url(#clip0_498_1527)">
<path d="M212.5 425.16C329.861 425.16 425 370.233 425 302.476C425 234.719 329.861 179.792 212.5 179.792C95.1395 179.792 0 234.719 0 302.476C0 370.233 95.1395 425.16 212.5 425.16Z" fill="#F5F5F5"/>
<path d="M248.872 369.932C270.451 369.932 287.944 359.833 287.944 347.374C287.944 334.916 270.451 324.817 248.872 324.817C227.293 324.817 209.799 334.916 209.799 347.374C209.799 359.833 227.293 369.932 248.872 369.932Z" fill="#E0E0E0"/>
<path d="M350.519 356.571C372.098 356.571 389.591 346.472 389.591 334.013C389.591 321.555 372.098 311.456 350.519 311.456C328.94 311.456 311.446 321.555 311.446 334.013C311.446 346.472 328.94 356.571 350.519 356.571Z" fill="#E0E0E0"/>
<path d="M136.801 403.755C158.38 403.755 175.873 393.655 175.873 381.197C175.873 368.739 158.38 358.639 136.801 358.639C115.222 358.639 97.7283 368.739 97.7283 381.197C97.7283 393.655 115.222 403.755 136.801 403.755Z" fill="#E0E0E0"/>
<path d="M72.7627 307.018C72.7627 307.018 71.743 283.166 61.7435 269.891C51.7441 256.615 39.4879 254.707 33.4165 258.446C28.9786 261.166 29.5734 269.248 37.2501 274.498C44.9267 279.748 59.7229 293.204 62.0362 301.976L72.7627 307.018Z" fill="#37474F"/>
<path d="M66.1531 303.543C65.9911 303.531 65.8402 303.456 65.7326 303.334C65.6251 303.213 65.5692 303.054 65.5771 302.892C66.6063 281.25 47.6366 267.757 42.4716 265.33C42.3234 265.26 42.2086 265.135 42.1521 264.981C42.0955 264.827 42.1018 264.658 42.1695 264.508C42.2411 264.36 42.3681 264.245 42.5234 264.188C42.6787 264.132 42.8499 264.138 43.0004 264.206C48.2976 266.718 67.8716 280.626 66.814 302.92C66.8043 303.084 66.7304 303.237 66.6085 303.346C66.4865 303.456 66.3263 303.513 66.1625 303.505L66.1531 303.543Z" fill="white"/>
<path d="M68.0415 299.483C66.6782 299.464 65.3674 298.955 64.3495 298.048C63.1881 296.773 63.2825 294.818 62.7443 293.175C61.8662 290.475 59.2034 288.643 56.4274 288.067C53.6126 287.628 50.7354 287.822 48.0048 288.634C42.4338 290.003 37.08 286.575 31.4996 286.981C29.4861 287.046 27.5279 287.656 25.8342 288.747C24.9988 289.3 24.3144 290.052 23.8428 290.935C23.3713 291.819 23.1276 292.806 23.1337 293.808C23.3251 295.466 24.1507 296.985 25.4376 298.048C26.728 299.107 28.1498 299.996 29.6678 300.691L34.5683 303.194C35.4155 303.57 36.1966 304.08 36.8817 304.704C37.5292 305.398 38.0175 306.225 38.3127 307.127C38.6078 308.028 38.7027 308.984 38.5908 309.926C38.2131 311.815 36.7023 313.25 36.2207 315.101C35.6259 317.527 37.1083 320.124 39.2423 321.436C41.4588 322.636 43.9889 323.13 46.494 322.853C48.9962 322.711 51.4701 322.211 53.9724 322.163C55.6653 322.042 57.3572 322.413 58.8446 323.23C60.5243 324.447 61.7345 326.204 62.2722 328.206C62.5965 329.491 63.1122 330.72 63.8018 331.851C64.6522 332.926 65.7973 333.73 67.0972 334.165C69.6114 335.09 72.373 335.09 74.8872 334.165C76.955 333.371 77.9654 331.039 78.7396 329.019C79.5133 326.903 79.8817 324.661 79.8255 322.409C79.7066 316.621 78.3985 310.919 75.9825 305.658C74.8211 303.241 73.1498 300.824 70.5815 299.993C69.7497 299.756 68.9003 299.585 68.0415 299.483Z" fill="#455A64"/>
<path d="M73.4049 325.43C73.2908 325.431 73.1794 325.396 73.0863 325.33C72.9931 325.263 72.923 325.17 72.8856 325.062C67.0597 308.359 39.4975 293.827 29.4508 292.156C29.3795 292.144 29.3112 292.118 29.2499 292.08C29.1885 292.042 29.1353 291.992 29.0932 291.933C29.0511 291.874 29.021 291.808 29.0046 291.738C28.9882 291.667 28.9858 291.594 28.9976 291.523C29.0094 291.452 29.0351 291.383 29.0732 291.322C29.1114 291.261 29.1613 291.207 29.22 291.165C29.2788 291.123 29.3452 291.093 29.4156 291.077C29.486 291.06 29.5589 291.058 29.6302 291.07C39.9035 292.769 68.0133 307.622 74.0092 324.694C74.0345 324.763 74.0457 324.836 74.0422 324.909C74.0388 324.982 74.0206 325.054 73.9889 325.12C73.9572 325.186 73.9126 325.245 73.8577 325.293C73.8028 325.342 73.7388 325.379 73.6693 325.402C73.5845 325.431 73.4941 325.441 73.4049 325.43Z" fill="white"/>
<path d="M48.6279 316.271C48.5225 316.263 48.4218 316.224 48.3381 316.159C48.2544 316.094 48.1912 316.006 48.1563 315.906C48.1213 315.807 48.116 315.699 48.1411 315.596C48.1661 315.493 48.2204 315.4 48.2974 315.327C52.8042 312.21 58.1338 310.498 63.6129 310.408C63.747 310.425 63.8701 310.491 63.9593 310.593C64.0485 310.694 64.0977 310.825 64.0977 310.96C64.0977 311.095 64.0485 311.226 63.9593 311.327C63.8701 311.429 63.747 311.495 63.6129 311.512C58.372 311.639 53.2795 313.279 48.949 316.234C48.8479 316.277 48.7363 316.29 48.6279 316.271Z" fill="white"/>
<path d="M73.7069 338.347C73.1131 337.944 72.6225 337.406 72.2748 336.778C71.927 336.15 71.7319 335.449 71.7051 334.731V137.962C71.7462 137.222 71.9608 136.503 72.3315 135.861C72.7022 135.22 73.2187 134.675 73.8391 134.27L305.328 0.613703C305.943 0.226566 306.652 0.01463 307.379 0.00073058C308.105 -0.0131689 308.822 0.171495 309.452 0.534825C310.081 0.898155 310.6 1.42638 310.951 2.06257C311.303 2.69877 311.474 3.41882 311.446 4.14514V200.924C311.405 201.663 311.191 202.383 310.82 203.024C310.449 203.666 309.933 204.211 309.312 204.616L77.8237 338.272C77.1911 338.605 76.4892 338.785 75.7743 338.798C75.0594 338.812 74.3514 338.657 73.7069 338.347Z" fill="#455A64"/>
<path d="M77.4177 338.451H77.3327C77.2682 338.49 77.1981 338.519 77.125 338.536H76.9645C76.8697 338.569 76.7715 338.592 76.6718 338.602C76.6084 338.628 76.5416 338.644 76.4735 338.65L76.1524 338.697C75.3099 338.811 74.4526 338.663 73.6974 338.272C73.1045 337.87 72.6149 337.334 72.2687 336.707C71.9224 336.081 71.7293 335.381 71.7051 334.665V163.183L75.7087 165.496V337.035C75.7087 337.979 76.1902 338.565 76.889 338.565C76.9828 338.579 77.0783 338.579 77.1722 338.565C77.2594 338.54 77.3422 338.501 77.4177 338.451Z" fill="#BA68C8"/>
<path opacity="0.81" d="M77.4177 338.451H77.3327C77.2682 338.49 77.1981 338.519 77.125 338.536H76.9645C76.8697 338.569 76.7715 338.592 76.6718 338.602C76.6084 338.628 76.5416 338.644 76.4735 338.65L76.1524 338.697C75.3099 338.811 74.4526 338.663 73.6974 338.272C73.1045 337.87 72.6149 337.334 72.2687 336.707C71.9224 336.081 71.7293 335.381 71.7051 334.665V163.183L75.7087 165.496V337.035C75.7087 337.979 76.1902 338.565 76.889 338.565C76.9828 338.579 77.0783 338.579 77.1722 338.565C77.2594 338.54 77.3422 338.501 77.4177 338.451Z" fill="#E0E0E0"/>
<path d="M75.6993 165.496L71.6958 163.183V201.282L75.6993 203.615V165.496Z" fill="#BA68C8"/>
<path opacity="0.15" d="M75.6993 165.496L71.6958 163.183V201.282L75.6993 203.615V165.496Z" fill="#E7EEF9"/>
<path d="M76.313 138.17C75.9351 138.806 75.724 139.527 75.6992 140.266V165.496L71.6957 163.183V137.962C71.691 137.877 71.691 137.792 71.6957 137.707C71.714 137.529 71.7423 137.353 71.7806 137.178C71.8983 136.716 72.0761 136.272 72.3094 135.856L76.313 138.17Z" fill="#263238"/>
<path d="M311.446 4.1546V15.5421L141.758 113.506C140.587 114.186 139.633 113.629 139.633 112.279V107.964C139.633 106.613 138.689 106.075 137.499 106.736L85.8214 136.583C85.201 136.988 84.6846 137.533 84.3138 138.175C83.9431 138.816 83.7285 139.536 83.6874 140.275V144.581C83.6474 145.32 83.4343 146.039 83.0652 146.68C82.6962 147.322 82.1816 147.867 81.5629 148.273L75.6992 151.691V140.36C75.7393 139.622 75.9524 138.903 76.3214 138.261C76.6905 137.62 77.2051 137.074 77.8237 136.668L309.322 2.9271C310.493 2.24725 311.446 2.79491 311.446 4.1546Z" fill="#545454"/>
<path d="M311.456 200.933C311.413 201.671 311.198 202.389 310.827 203.028C310.457 203.668 309.941 204.212 309.322 204.616L77.8237 338.272C76.6529 338.942 75.6992 338.395 75.6992 337.035V151.691L81.5629 148.311C82.7338 147.631 84.6411 137.301 85.8214 136.621L136.631 107.284C137.811 106.604 140.587 114.233 141.758 113.554L311.446 15.5421V200.933H311.456Z" fill="#BA68C8"/>
<path opacity="0.9" d="M311.456 200.933C311.413 201.671 311.198 202.389 310.827 203.028C310.457 203.668 309.941 204.212 309.322 204.616L77.8237 338.272C76.6529 338.942 75.6992 338.395 75.6992 337.035V151.691L81.5629 148.311C82.7338 147.631 84.6411 137.301 85.8214 136.621L136.631 107.284C137.811 106.604 140.587 114.233 141.758 113.554L311.446 15.5421V200.933H311.456Z" fill="white"/>
<g opacity="0.4">
<path opacity="0.4" d="M310.502 17.1756V200.933C310.456 201.5 310.283 202.049 309.995 202.54C309.707 203.03 309.313 203.449 308.84 203.766L77.3516 337.451C77.2088 337.547 77.0422 337.602 76.8701 337.611C76.6529 337.611 76.6435 337.139 76.6435 337.035V152.192L82.035 149.076C82.866 148.594 83.3947 146.942 84.5845 142.693C85.0165 140.862 85.6105 139.074 86.3596 137.348L136.753 108.256C137.357 109.079 137.899 109.943 138.378 110.844C139.747 113.242 140.502 114.488 141.597 114.488C141.818 114.488 142.036 114.433 142.23 114.328L310.502 17.1756ZM311.446 15.5421L141.758 113.506C141.705 113.52 141.65 113.52 141.597 113.506C140.408 113.506 137.99 107.152 136.791 107.152C136.739 107.138 136.683 107.138 136.631 107.152L85.8214 136.583C84.6411 137.263 82.7338 147.593 81.5629 148.273L75.6992 151.691V337.035C75.6992 337.979 76.1808 338.555 76.8701 338.555C77.2036 338.541 77.5283 338.444 77.8143 338.272L309.322 204.616C309.941 204.212 310.457 203.668 310.827 203.028C311.198 202.389 311.413 201.671 311.456 200.933V15.5421H311.446Z" fill="#0E53BE"/>
</g>
<path d="M75.6992 165.496V203.615L311.446 67.5222V29.394L75.6992 165.496Z" fill="#0E53BE"/>
<path d="M311.446 15.5421V29.394L75.6992 165.496V151.691L80.071 149.161C81.2419 148.481 81.6385 147.442 82.1956 145.469L83.6874 140.313C84.1501 138.519 84.6317 137.301 85.8214 136.621L136.631 107.284C137.811 106.604 138.736 106.529 139.633 108.011L141.456 111.316C142.117 112.477 142.457 113.157 143.627 112.477L311.446 15.5421Z" fill="#F0F0F0"/>
<path d="M301.456 11.293C302.939 10.4432 304.138 11.1325 304.138 12.8415C304.088 13.7721 303.818 14.6777 303.353 15.4849C302.887 16.292 302.237 16.978 301.456 17.4872C299.983 18.337 298.784 17.6477 298.784 15.9386C298.835 15.0092 299.103 14.1047 299.567 13.2978C300.032 12.491 300.679 11.8043 301.456 11.293Z" fill="#E7EEF9"/>
<path d="M291.825 16.8545C293.298 16.0047 294.497 16.694 294.497 18.4031C294.446 19.3325 294.178 20.237 293.714 21.0439C293.25 21.8507 292.603 22.5374 291.825 23.0487C290.343 23.8985 289.144 23.2092 289.144 21.5002C289.194 20.5696 289.463 19.6639 289.929 18.8568C290.395 18.0496 291.045 17.3637 291.825 16.8545Z" fill="#E7EEF9"/>
<path d="M282.166 22.4161C283.639 21.5662 284.847 22.2555 284.847 23.9646C284.795 24.8947 284.525 25.7995 284.059 26.6063C283.593 27.4131 282.945 28.0994 282.166 28.6102C280.683 29.4695 279.484 28.7708 279.484 27.0617C279.534 26.1311 279.804 25.2255 280.269 24.4183C280.735 23.6112 281.385 22.9252 282.166 22.4161Z" fill="#E7EEF9"/>
<path opacity="0.5" d="M85.4628 152.635L82.1202 154.524L83.3949 152.078C83.4453 151.986 83.4717 151.882 83.4717 151.776C83.4717 151.671 83.4453 151.567 83.3949 151.474C83.3005 151.361 83.1305 151.474 83.0172 151.653L81.2043 155.147C81.2003 155.191 81.2003 155.235 81.2043 155.279C81.2001 155.339 81.2001 155.399 81.2043 155.459C81.1985 155.512 81.1985 155.566 81.2043 155.619C81.1997 155.644 81.1997 155.67 81.2043 155.695L83.0172 157.092C83.0441 157.109 83.0752 157.118 83.1069 157.118C83.1386 157.118 83.1697 157.109 83.1966 157.092C83.2832 157.022 83.3512 156.931 83.3949 156.828C83.4893 156.601 83.4799 156.346 83.3949 156.261L82.1202 155.317L85.4628 153.429C85.5503 153.361 85.6206 153.273 85.6682 153.173C85.7158 153.073 85.7392 152.963 85.7366 152.853C85.7366 152.635 85.6139 152.56 85.4628 152.635Z" fill="#455A64"/>
<path opacity="0.5" d="M88.2576 151.03L91.6002 149.142L90.3254 148.198C90.2121 148.113 90.2027 147.858 90.3254 147.631C90.4482 147.404 90.5898 147.282 90.7031 147.367L92.5161 148.764C92.5398 148.781 92.5592 148.804 92.5727 148.83C92.5826 148.88 92.5826 148.931 92.5727 148.981C92.5826 149.041 92.5826 149.101 92.5727 149.161C92.5727 149.161 92.5727 149.161 92.5727 149.208C92.5579 149.254 92.5389 149.298 92.5161 149.34L90.7031 152.796C90.6639 152.881 90.6017 152.953 90.5237 153.004C90.4973 153.03 90.4617 153.044 90.4246 153.044C90.3875 153.044 90.3519 153.03 90.3254 153.004C90.2724 152.912 90.2445 152.808 90.2445 152.702C90.2445 152.596 90.2724 152.491 90.3254 152.399L91.6002 149.944L88.2576 151.88C88.1065 151.965 87.9932 151.88 87.9932 151.616C87.9872 151.504 88.0081 151.393 88.0541 151.291C88.1001 151.189 88.1699 151.1 88.2576 151.03Z" fill="#455A64"/>
<path opacity="0.5" d="M99.2011 141.399C99.2011 141.201 99.0028 141.229 98.9178 141.446L98.4552 142.57C97.6714 142.485 96.7272 143.24 96.0851 144.6C95.2636 146.347 95.2636 148.377 96.0851 149.217C96.2868 149.406 96.5479 149.519 96.8236 149.536C97.0992 149.553 97.3723 149.474 97.5959 149.312C98.2636 148.864 98.7855 148.23 99.0972 147.489C99.1496 147.401 99.1772 147.3 99.1772 147.197C99.1772 147.094 99.1496 146.993 99.0972 146.904C98.9839 146.8 98.814 146.904 98.7101 147.121C98.0964 148.424 97.086 149.01 96.4723 148.415C95.8585 147.82 95.8491 146.271 96.4723 144.959C96.9066 144.015 97.5393 143.476 98.0964 143.448L97.747 144.288C97.662 144.506 97.747 144.713 97.8792 144.619L99.2483 143.731C99.3006 143.684 99.3414 143.625 99.3676 143.56C99.3938 143.495 99.4047 143.424 99.3994 143.354L99.2011 141.399Z" fill="#455A64"/>
<path opacity="0.5" d="M135.167 113.563L136.385 110.976C136.457 110.854 136.494 110.716 136.494 110.575C136.494 110.433 136.457 110.295 136.385 110.173C136.244 110.041 136.008 110.173 135.866 110.475L134.648 113.053L133.42 111.882C133.279 111.741 133.043 111.882 132.901 112.184C132.83 112.306 132.792 112.445 132.792 112.586C132.792 112.727 132.83 112.865 132.901 112.987L134.119 114.158L132.901 116.755C132.83 116.876 132.792 117.015 132.792 117.156C132.792 117.297 132.83 117.436 132.901 117.557C132.938 117.588 132.985 117.605 133.033 117.605C133.081 117.605 133.128 117.588 133.165 117.557C133.283 117.484 133.372 117.375 133.42 117.246L134.648 114.658L135.866 115.839C135.902 115.869 135.947 115.885 135.993 115.885C136.04 115.885 136.085 115.869 136.121 115.839C136.238 115.764 136.331 115.655 136.385 115.527C136.457 115.405 136.494 115.267 136.494 115.126C136.494 114.985 136.457 114.846 136.385 114.724L135.167 113.563Z" fill="#455A64"/>
<path d="M103.667 144.572V140.266C103.711 139.527 103.928 138.809 104.3 138.169C104.672 137.53 105.19 136.986 105.811 136.584L297.349 26.1081C298.529 25.4282 299.483 25.9759 299.483 27.3356V31.5846C299.442 32.3243 299.227 33.0439 298.856 33.6853C298.486 34.3266 297.969 34.8718 297.349 35.2766L105.811 145.809C104.621 146.489 103.667 145.931 103.667 144.572Z" fill="white"/>
<path d="M294.431 35.5504C294.381 35.5603 294.33 35.5603 294.28 35.5504C294.18 35.5004 294.1 35.4184 294.052 35.3174C294.004 35.2164 293.991 35.1023 294.016 34.9933L294.224 33.2087L293.355 32.5855C293.293 32.5402 293.243 32.4803 293.21 32.411C293.177 32.3418 293.162 32.2655 293.166 32.1889C293.166 32.059 293.195 31.9308 293.251 31.8133C293.306 31.6958 293.387 31.592 293.487 31.5091L294.733 30.5648C294.775 30.5271 294.805 30.4778 294.818 30.4232L295.375 28.5914C295.407 28.4578 295.476 28.336 295.575 28.2407C295.674 28.1453 295.798 28.0802 295.933 28.0532C296.017 28.0503 296.1 28.072 296.172 28.1156C296.244 28.1592 296.302 28.2228 296.339 28.2987L296.839 29.3751L297.972 28.9407C298.052 28.9066 298.14 28.8983 298.225 28.9169C298.31 28.9356 298.386 28.9802 298.444 29.0446C298.519 29.1583 298.558 29.2912 298.558 29.427C298.558 29.5629 298.519 29.6958 298.444 29.8094L297.5 31.5091C297.49 31.5589 297.49 31.6103 297.5 31.6601L297.717 33.1992C297.73 33.3252 297.715 33.4524 297.672 33.5717C297.63 33.6909 297.561 33.7992 297.472 33.8885C297.421 33.9485 297.357 33.9953 297.285 34.0249C297.213 34.0545 297.134 34.066 297.056 34.0585L295.933 33.9169L294.847 35.371C294.794 35.4288 294.73 35.4747 294.658 35.5056C294.587 35.5366 294.509 35.5518 294.431 35.5504ZM293.714 32.0851L294.582 32.7082C294.655 32.7692 294.711 32.8488 294.742 32.9385C294.774 33.0283 294.78 33.1249 294.762 33.2181L294.658 34.6911L295.602 33.5014C295.656 33.4247 295.728 33.3629 295.813 33.3216C295.897 33.2803 295.99 33.261 296.084 33.2653L297.207 33.407C297.207 33.407 297.255 33.2559 297.207 33.1804L296.99 31.6413C296.975 31.4709 297.011 31.2999 297.094 31.1503L298.038 29.4506L297 29.8472C296.95 29.8689 296.897 29.8805 296.843 29.8813C296.789 29.882 296.735 29.872 296.685 29.8518C296.635 29.8316 296.589 29.8015 296.551 29.7635C296.512 29.7254 296.482 29.68 296.461 29.63L295.999 28.6858L295.442 30.5176C295.395 30.686 295.296 30.835 295.158 30.9425L293.912 31.8868C293.824 31.9265 293.753 31.997 293.714 32.0851Z" fill="#E0E0E0"/>
<g opacity="0.5">
<path opacity="0.5" d="M301.976 25.5226C301.812 25.5243 301.653 25.4715 301.522 25.3726C301.392 25.2737 301.299 25.1342 301.257 24.9762C301.214 24.8183 301.226 24.6507 301.289 24.5001C301.353 24.3494 301.465 24.2241 301.607 24.144L307.594 20.6881C307.677 20.6392 307.77 20.6072 307.866 20.5939C307.962 20.5807 308.06 20.5865 308.154 20.6111C308.248 20.6356 308.336 20.6784 308.413 20.737C308.49 20.7956 308.555 20.8688 308.604 20.9525C308.653 21.0362 308.685 21.1288 308.698 21.2248C308.712 21.3209 308.706 21.4186 308.681 21.5125C308.657 21.6063 308.614 21.6943 308.555 21.7716C308.497 21.8489 308.423 21.9139 308.34 21.9629L302.344 25.4282C302.231 25.4914 302.104 25.5239 301.976 25.5226Z" fill="#455A64"/>
<path opacity="0.5" d="M301.976 28.988C301.846 28.9878 301.718 28.9537 301.606 28.8891C301.493 28.8245 301.399 28.7317 301.333 28.6197C301.285 28.5355 301.253 28.4425 301.24 28.346C301.228 28.2494 301.234 28.1514 301.26 28.0574C301.285 27.9635 301.329 27.8755 301.389 27.7986C301.448 27.7217 301.523 27.6574 301.607 27.6094L307.594 24.144C307.762 24.0666 307.954 24.0547 308.131 24.1108C308.307 24.1668 308.457 24.2867 308.55 24.4472C308.643 24.6076 308.673 24.797 308.635 24.9784C308.596 25.1598 308.49 25.3201 308.34 25.4282L302.344 28.8841C302.232 28.9501 302.105 28.9859 301.976 28.988Z" fill="#455A64"/>
<path opacity="0.5" d="M301.975 32.4439C301.846 32.4437 301.718 32.4096 301.605 32.345C301.493 32.2804 301.399 32.1876 301.333 32.0756C301.285 31.9921 301.253 31.8998 301.241 31.804C301.228 31.7082 301.235 31.6109 301.26 31.5177C301.286 31.4245 301.33 31.3374 301.389 31.2613C301.449 31.1852 301.523 31.1218 301.607 31.0747L307.594 27.6094C307.677 27.5604 307.77 27.5284 307.866 27.5152C307.962 27.5019 308.06 27.5078 308.154 27.5323C308.247 27.5569 308.335 27.5997 308.413 27.6582C308.49 27.7168 308.555 27.7901 308.604 27.8738C308.653 27.9575 308.685 28.05 308.698 28.1461C308.711 28.2421 308.706 28.3399 308.681 28.4337C308.656 28.5275 308.614 28.6156 308.555 28.6928C308.496 28.7701 308.423 28.8351 308.34 28.8841L302.344 32.3494C302.231 32.4126 302.104 32.4452 301.975 32.4439Z" fill="#455A64"/>
</g>
<path d="M75.6993 151.644V165.496L71.6958 163.183V149.34L75.6993 151.644Z" fill="#E0E0E0"/>
<path opacity="0.1" d="M85.9254 212.604L151.125 174.957V281.25L85.7366 318.792L85.9254 212.604Z" fill="#BA68C8"/>
<path opacity="0.15" d="M165.496 168.621L244.151 123.213C245.737 122.269 246.983 122.986 246.983 124.752C246.924 125.729 246.637 126.679 246.145 127.525C245.653 128.371 244.97 129.09 244.151 129.624L165.487 175.543C163.91 176.487 162.654 175.731 162.654 173.909V173.579C162.707 172.588 162.992 171.623 163.485 170.762C163.979 169.901 164.668 169.168 165.496 168.621Z" fill="#BA68C8"/>
<path opacity="0.1" d="M164.674 182.379L294.828 107.237C295.961 106.585 296.877 107.048 296.877 108.266C296.827 108.954 296.615 109.62 296.259 110.211C295.903 110.802 295.413 111.3 294.828 111.665L164.674 186.807C163.551 187.459 162.635 186.996 162.635 185.778C162.684 185.091 162.895 184.426 163.249 183.835C163.604 183.245 164.092 182.746 164.674 182.379Z" fill="#BA68C8"/>
<path opacity="0.1" d="M164.674 191.274L294.828 116.131C295.961 115.48 296.877 115.943 296.877 117.161C296.827 117.848 296.615 118.515 296.259 119.106C295.903 119.696 295.413 120.194 294.828 120.56L164.674 195.702C163.551 196.354 162.635 195.891 162.635 194.663C162.686 193.978 162.897 193.314 163.251 192.726C163.605 192.137 164.093 191.64 164.674 191.274Z" fill="#BA68C8"/>
<path opacity="0.1" d="M164.674 200.159L294.828 125.017C295.961 124.365 296.877 124.828 296.877 126.055C296.825 126.742 296.613 127.406 296.257 127.995C295.901 128.584 295.411 129.081 294.828 129.445L164.674 204.568C163.551 205.22 162.635 204.757 162.635 203.53C162.69 202.848 162.903 202.189 163.257 201.604C163.611 201.019 164.096 200.524 164.674 200.159Z" fill="#BA68C8"/>
<path opacity="0.1" d="M164.674 209.053L294.828 133.911C295.961 133.26 296.877 133.722 296.877 134.941C296.827 135.628 296.615 136.295 296.259 136.885C295.903 137.476 295.413 137.974 294.828 138.34L164.674 213.482C163.551 214.133 162.635 213.671 162.635 212.453C162.684 211.766 162.895 211.1 163.249 210.51C163.604 209.919 164.092 209.42 164.674 209.053Z" fill="#BA68C8"/>
<path opacity="0.1" d="M164.674 217.948L255.491 165.071C256.615 164.42 257.53 164.882 257.53 166.11C257.479 166.795 257.268 167.459 256.914 168.047C256.56 168.636 256.072 169.133 255.491 169.5L164.674 222.377C163.551 223.028 162.635 222.566 162.635 221.338C162.686 220.653 162.897 219.989 163.251 219.4C163.605 218.812 164.093 218.314 164.674 217.948Z" fill="#BA68C8"/>
<path opacity="0.1" d="M164.674 235.728L294.828 160.586C295.961 159.934 296.877 160.397 296.877 161.615C296.827 162.303 296.615 162.969 296.259 163.56C295.903 164.151 295.413 164.649 294.828 165.014L164.674 240.157C163.551 240.808 162.635 240.345 162.635 239.127C162.684 238.441 162.895 237.775 163.249 237.184C163.604 236.594 164.092 236.095 164.674 235.728Z" fill="#BA68C8"/>
<path opacity="0.1" d="M164.674 244.623L294.828 169.481C295.961 168.829 296.877 169.292 296.877 170.51C296.827 171.198 296.615 171.864 296.259 172.455C295.903 173.045 295.413 173.544 294.828 173.909L164.674 249.051C163.551 249.703 162.635 249.24 162.635 248.013C162.686 247.327 162.897 246.664 163.251 246.075C163.605 245.486 164.093 244.989 164.674 244.623Z" fill="#BA68C8"/>
<path opacity="0.1" d="M164.674 253.508L294.828 178.366C295.961 177.714 296.877 178.177 296.877 179.405C296.825 180.091 296.613 180.755 296.257 181.344C295.901 181.933 295.411 182.43 294.828 182.794L164.674 257.946C163.551 258.597 162.635 258.135 162.635 256.907C162.686 256.221 162.897 255.556 163.251 254.966C163.605 254.375 164.093 253.876 164.674 253.508Z" fill="#BA68C8"/>
<path opacity="0.1" d="M164.675 262.403L212.509 234.491C213.633 233.84 214.549 234.302 214.549 235.53C214.498 236.215 214.287 236.879 213.933 237.467C213.578 238.056 213.091 238.554 212.509 238.92L164.684 266.831C163.56 267.483 162.644 267.02 162.644 265.802C162.693 265.116 162.902 264.451 163.255 263.861C163.607 263.27 164.094 262.771 164.675 262.403Z" fill="#BA68C8"/>
<path d="M338.603 211.367C345.524 188.913 352.256 174.117 345.392 169.537C339.009 170.727 336.148 173.89 334.788 182.313C333.362 191.141 330.397 203.454 328.669 210.555C327.176 216.489 325.038 222.242 322.296 227.712C321.882 228.469 321.213 229.055 320.407 229.364C318.273 230.204 317.253 231.252 315.516 232.537C314.147 233.481 313.146 233.613 313.212 234.019C313.324 234.475 313.61 234.868 314.009 235.115C314.408 235.363 314.888 235.443 315.346 235.341C316.372 235.147 317.371 234.83 318.32 234.397C317.504 236.466 316.232 238.324 314.6 239.836C311.248 242.668 311.767 245.435 317.14 245.756C319.029 245.869 323.533 244.113 327.678 237.06C329.079 234.43 330.313 231.715 331.37 228.93C334.259 221.697 337.215 215.899 338.603 211.367Z" fill="#FFA8A7"/>
<path d="M346.591 169.273C346.591 169.273 341.265 168.999 338.036 172.559C334.807 176.119 331.049 197.383 331.049 197.383C331.049 197.383 334.58 202.236 343.89 200.215L346.591 169.273Z" fill="#0A3B87"/>
<path d="M371.528 320.124H364.38V332.871H371.528V320.124Z" fill="#FFA8A7"/>
<path d="M346.742 319.444L339.594 319.708L339.235 306.215L346.742 305.96V319.444Z" fill="#FFA8A7"/>
<path d="M372.538 209.762C372.538 216.872 371.49 274.092 371.49 274.092C371.651 276.141 373.492 279.918 373.096 287.774C372.557 298.444 371.83 326.488 371.83 326.488C370.604 327.12 369.249 327.463 367.87 327.493C366.491 327.522 365.123 327.237 363.87 326.658C363.87 326.658 357.11 287.803 355.835 277.218C354.711 267.993 352.813 236.908 352.813 236.908L348.942 273.044C349.767 276.934 350.065 280.916 349.83 284.885C349.49 289.776 347.195 315.261 347.195 315.261C345.959 315.989 344.574 316.426 343.144 316.539C341.714 316.652 340.277 316.438 338.943 315.913C338.943 315.913 334.873 277.539 334.788 273.044C334.693 267.927 337.167 209.677 337.167 209.677L372.538 209.762Z" fill="#8A8A8A"/>
<path d="M364.38 329.207V328.14C363.691 328.452 362.104 334.75 359.272 337.469C357.015 339.603 353.937 342.077 353.153 344.466C352.369 346.855 357.44 348.328 359.546 347.941C361.991 347.488 366.24 345.694 367.298 344.022C368.355 342.351 368.865 339.906 369.734 338.687C370.603 337.469 372.567 336.11 373.058 334.693C373.322 333.919 373.058 332.219 372.652 330.784C372.246 329.349 371.962 328.018 371.528 328.14V328.952C370.526 329.784 369.261 330.232 367.959 330.218C366.911 330.246 364.371 330.029 364.38 329.207Z" fill="#263238"/>
<path d="M339.518 317.404C339.15 317.404 338.848 317.962 338.027 318.887C336.813 320.167 335.393 321.233 333.825 322.041C331.143 323.438 325.94 325.582 323.58 326.686C322.116 327.376 322.182 329.226 323.703 330.284C325.223 331.341 328.896 332.097 333.305 331.068C335.704 330.51 338.839 328.235 340.812 328.32C342.786 328.405 346.477 328.424 347.96 327.376C349.442 326.327 348.838 324.09 348.423 322.163C347.969 320.067 347.412 316.791 346.742 316.932V317.659C345.883 319.01 341.445 319.548 339.556 318.604L339.518 317.404Z" fill="#263238"/>
<path d="M352.813 236.918C349.093 235.703 345.693 233.67 342.861 230.969C342.861 230.969 344.75 234.746 350.491 238.202L349.273 270.476L352.813 236.918Z" fill="#263238"/>
<path d="M368.818 170.973C368.818 170.973 374.408 171.492 374.011 182.143L372.774 199.139V224.633C367.515 230.591 344.211 230.148 336.232 224.152C336.232 224.152 337.129 194.002 337.668 182.398C338.055 174.155 339.953 170 348.054 169.093L358.016 169.528L368.818 170.973Z" fill="#0D4CAD"/>
<path opacity="0.3" d="M352.926 176.562L351.642 185.514L348.658 185.457L352.029 185.995L352.926 176.562Z" fill="black"/>
<path d="M360.386 146.97C360.444 149.852 359.356 152.639 357.361 154.719C355.366 156.8 352.626 158.003 349.744 158.065C343.862 158.065 339.358 153.089 339.093 146.98C338.631 136.149 343.862 135.885 349.744 135.885C352.624 135.947 355.362 137.149 357.357 139.227C359.352 141.305 360.442 144.09 360.386 146.97Z" fill="#263238"/>
<path d="M366.419 152.456C366.419 152.456 364.786 160.444 364.134 161.757C363.713 162.557 362.994 163.161 362.133 163.438L362.246 157.819L366.419 152.456Z" fill="#263238"/>
<path d="M364.399 141.012C364.399 141.012 365.57 140.719 366.816 142.664C367.883 144.326 368.129 148.065 366.448 152.456L363.379 152.824L364.399 141.012Z" fill="#263238"/>
<path d="M362.454 152.824C363.067 153.211 363.946 151.975 364.71 151.144C365.475 150.313 367.949 149.189 369.196 151.899C370.442 154.609 368.1 158.329 366.146 158.971C362.775 160.076 362.274 157.819 362.274 157.819L362.01 170.472C357.544 177.393 347.412 177.138 351.057 170.142V166.289C349.557 166.539 348.033 166.621 346.515 166.535C344.041 166.129 342.483 164.099 341.728 161.304C340.519 156.818 340.066 153.202 341.086 144.373C342.219 134.695 353.021 134.61 358.866 138.472C364.71 142.334 362.454 152.824 362.454 152.824Z" fill="#FFA8A7"/>
<path d="M362.067 167.639C361.028 169.766 359.535 171.638 357.695 173.125C356.131 174.281 354.316 175.051 352.398 175.373C353.98 176.445 355.277 177.887 356.175 179.575C357.298 182.03 365.164 175.259 365.088 170.453C365.088 170.453 363.861 165.628 362.161 165.326L362.067 167.639Z" fill="#B0B0B0"/>
<path d="M352.398 175.373C352.398 175.373 349.971 174.173 351.057 170.142V166.289L349.99 166.431C348.746 167.642 347.864 169.176 347.44 170.859C347.195 171.964 346.591 177.554 347.658 178.659C348.725 179.763 350.217 175.675 352.398 175.373Z" fill="#B0B0B0"/>
<path d="M358.318 142.249C358.594 142.189 358.882 142.205 359.149 142.296C360.093 142.712 360.263 145.563 360.424 146.385C360.962 149.151 361.415 153.844 362.454 153.863C362.766 153.863 363.946 151.833 364.711 151.106C365.778 150.096 364.399 140.974 364.399 140.974C364.68 140.187 364.734 139.336 364.554 138.519C364.373 137.702 363.966 136.953 363.379 136.357C361.491 134.166 358.45 133.675 355.703 133.524C352.464 133.345 349.178 133.59 345.987 132.882C344.984 132.604 343.966 132.386 342.937 132.231C342.893 132.212 342.847 132.203 342.8 132.203C342.753 132.203 342.706 132.212 342.663 132.231C342.559 132.316 342.578 132.476 342.606 132.608C342.806 133.564 343.143 134.487 343.607 135.347C341.707 135.197 339.831 134.826 338.017 134.242C337.913 134.209 337.801 134.209 337.696 134.242C337.479 134.308 337.441 134.591 337.46 134.818C337.583 137.103 338.669 140.559 340.529 141.9C342.178 142.979 344.092 143.583 346.062 143.646C351.067 143.835 354.145 142.778 358.318 142.249Z" fill="#263238"/>
<path d="M364.399 141.494L368.129 139.407C368.015 139.15 367.849 138.92 367.641 138.731C367.433 138.542 367.188 138.398 366.921 138.309C366.654 138.221 366.372 138.188 366.092 138.215C365.813 138.241 365.541 138.325 365.296 138.463C364.8 138.769 364.434 139.247 364.269 139.807C364.103 140.366 364.15 140.966 364.399 141.494Z" fill="#263238"/>
<path d="M351.067 166.289C351.067 166.289 356.59 165.128 358.526 164.061C359.673 163.43 360.604 162.469 361.198 161.304C360.91 162.476 360.394 163.58 359.678 164.552C358.271 166.44 351.067 167.819 351.067 167.819V166.289Z" fill="#F28F8F"/>
<path d="M352.397 151.389C352.418 151.602 352.499 151.805 352.632 151.972C352.765 152.14 352.944 152.265 353.146 152.333C353.349 152.401 353.567 152.408 353.774 152.355C353.981 152.301 354.168 152.188 354.313 152.031C354.457 151.873 354.552 151.676 354.587 151.465C354.622 151.254 354.595 151.038 354.509 150.842C354.423 150.646 354.283 150.479 354.104 150.362C353.925 150.244 353.716 150.181 353.502 150.18C353.35 150.185 353.2 150.221 353.061 150.284C352.922 150.348 352.798 150.439 352.695 150.552C352.592 150.664 352.512 150.796 352.461 150.94C352.41 151.084 352.389 151.237 352.397 151.389Z" fill="#263238"/>
<path d="M354.145 146.611L356.515 147.971C356.686 147.644 356.732 147.265 356.643 146.907C356.554 146.549 356.337 146.235 356.033 146.026C355.875 145.924 355.696 145.859 355.509 145.834C355.323 145.808 355.133 145.824 354.953 145.88C354.773 145.936 354.608 146.03 354.468 146.156C354.329 146.283 354.218 146.438 354.145 146.611Z" fill="#263238"/>
<path d="M351.567 159.358L349.036 160.303C349.086 160.477 349.172 160.638 349.287 160.778C349.402 160.917 349.544 161.032 349.705 161.114C349.866 161.197 350.043 161.245 350.223 161.256C350.404 161.268 350.585 161.242 350.755 161.181C351.091 161.031 351.36 160.762 351.51 160.425C351.66 160.089 351.68 159.709 351.567 159.358Z" fill="#F28F8F"/>
<path d="M342.228 147.622L344.391 145.884C344.293 145.732 344.165 145.602 344.013 145.504C343.862 145.405 343.691 145.34 343.512 145.312C343.334 145.284 343.151 145.295 342.977 145.343C342.803 145.391 342.641 145.476 342.502 145.591C342.214 145.836 342.026 146.179 341.975 146.554C341.925 146.929 342.015 147.309 342.228 147.622Z" fill="#263238"/>
<path d="M343.182 151.059C343.176 151.209 343.199 151.36 343.251 151.502C343.304 151.643 343.383 151.773 343.486 151.884C343.589 151.994 343.713 152.084 343.85 152.146C343.987 152.209 344.136 152.243 344.287 152.248C344.605 152.248 344.91 152.122 345.135 151.897C345.359 151.672 345.486 151.367 345.486 151.049C345.486 150.731 345.359 150.426 345.135 150.201C344.91 149.976 344.605 149.85 344.287 149.85C343.981 149.867 343.694 150.003 343.488 150.229C343.281 150.455 343.172 150.753 343.182 151.059Z" fill="#263238"/>
<path d="M349.112 150.133L348.98 157.13L345.005 156.214L349.112 150.133Z" fill="#F28F8F"/>
<path d="M379.695 157.168C381.291 155.053 384.521 159.746 386.012 162.984C387.504 166.223 387.533 168.055 386.305 169.339C385.078 170.623 382.764 169.849 380.451 166.78C378.137 163.711 378.78 158.726 379.695 157.168Z" fill="#BA68C8"/>
<path opacity="0.5" d="M379.695 157.168C381.291 155.053 384.521 159.746 386.012 162.984C387.504 166.223 387.533 168.055 386.305 169.339C385.078 170.623 382.764 169.849 380.451 166.78C378.137 163.711 378.78 158.726 379.695 157.168Z" fill="black"/>
<path d="M390.97 157.791C385.304 171.01 377.42 178.46 373.879 186.968C369.243 186.656 365.626 175.448 369.082 170.661C369.082 170.661 382.66 155.959 383.888 150.18C384.983 145.053 386.447 136.593 386.324 132.24C386.275 131.531 385.978 130.862 385.484 130.352C384.058 128.812 384.058 127.585 383.142 125.895C382.434 124.573 381.65 124.082 381.877 123.78C382.17 123.466 382.571 123.274 383 123.242C383.429 123.211 383.854 123.342 384.19 123.61C384.845 124.089 385.433 124.654 385.937 125.29C386.111 123.593 385.834 121.88 385.134 120.324C383.557 116.755 383.944 114.942 388.751 116.207C391.772 117.01 393.661 119.521 394.114 126.763C394.324 129.778 394.343 132.802 394.171 135.819C393.642 141.399 393.311 147.216 392.622 151.871C392.325 153.906 391.769 155.896 390.97 157.791Z" fill="#FFA8A7"/>
<path d="M367.666 170.821L379.639 157.13C379.639 157.13 378.213 160.463 381.329 165.326C384.445 170.189 386.296 169.339 386.296 169.339C386.296 169.339 379.223 179.659 377.335 183.115C375.446 186.571 373.473 189.489 373.473 189.489C373.264 189.892 372.939 190.223 372.54 190.441C372.142 190.658 371.687 190.75 371.235 190.707C369.479 190.707 364.824 182.908 367.666 170.821Z" fill="#0A3B87"/>
<path d="M270.504 201.594L276.141 209.101L270.079 216.041L262.271 206.91L270.504 201.594Z" fill="#F28F8F"/>
<path d="M252.045 184.522C256.964 184.749 259.306 185.467 261.883 188.545C264.461 191.623 277.341 210.234 277.341 210.234C277.341 210.234 275.065 216.617 270.079 216.069L261.024 206.731L252.045 184.522Z" fill="#545454"/>
<path d="M227.91 340.434C227.56 342.392 227.37 344.375 227.343 346.364C227.277 349.952 226.616 351.236 226.531 354.182C226.427 357.553 227.013 358.819 228.42 360.707C229.827 362.596 233.377 364.323 234.897 361.123C236.417 357.922 236.219 355.825 235.728 352.511C235.237 349.197 235.162 347.204 234.878 344.598C234.614 342.294 234.312 340.548 234.312 340.548L227.91 340.434Z" fill="#263238"/>
<path d="M238.117 312.211L226.267 311.994C226.446 319.907 227.702 333.069 227.91 340.482C227.91 341.879 227.91 351.331 228.401 354.211C229.194 358.526 234.312 357.94 234.586 355.363C234.86 352.785 234.255 341.737 234.274 340.595C234.227 335.874 236.455 323.429 237.626 314.883C237.683 314.421 238.06 312.57 238.117 312.211Z" fill="#FFBDA7"/>
<path d="M255.519 334.287C255.519 334.287 254.915 334.287 254.811 334.816C254.707 335.345 254.67 336.346 254.424 337.328C254.021 338.867 253.881 340.463 254.009 342.049C254.207 343.154 256.728 344.797 258.456 345.089C260.184 345.382 262.611 347.082 263.961 348.356C266.129 350.146 268.812 351.198 271.619 351.359C274.451 351.359 276.5 350.415 277.444 348.866C278.389 347.318 276.585 347.138 273.299 345.004L270.74 343.343C265.538 339.943 263.63 338.121 262.157 334.722L255.519 334.287Z" fill="#263238"/>
<path d="M262.195 332.437C262.11 329.982 263.357 311.947 263.357 311.947L253.168 313.099C255.586 327.47 255.774 332.371 255.501 334.467C255.449 334.661 255.427 334.861 255.434 335.062C255.434 337.894 258.598 339.367 261.1 341.227C262.044 341.964 264.565 344.23 267.492 345.222C269.381 345.873 272.884 346.166 273.328 344.967C270.344 342.682 266.265 339.698 263.885 337.082C262.715 335.817 262.28 334.873 262.195 332.437Z" fill="#FFBDA7"/>
<path d="M229.015 230.403C223.463 242.546 229.222 285.3 229.222 285.3C229.052 287.274 226.796 291.145 225.965 299.823C224.973 310.058 227.787 337.488 227.787 337.488C228.779 338.09 229.913 338.42 231.073 338.445C232.233 338.47 233.38 338.189 234.397 337.63C234.397 337.63 241.564 297.33 242.895 287.151C244.019 278.256 246.171 258.711 246.171 258.711L252.29 287.095C251.393 289.961 250.742 292.899 250.345 295.876C249.769 301.862 255.604 331.936 255.604 331.936C256.656 332.37 257.786 332.583 258.923 332.56C260.06 332.537 261.181 332.28 262.214 331.804C262.214 331.804 264.792 292.958 265.339 285.744C266.284 273.62 263.026 235.804 260.807 228.628L229.015 230.403Z" fill="#0E53BE"/>
<path opacity="0.5" d="M229.015 230.403C223.463 242.546 229.222 285.3 229.222 285.3C229.052 287.274 226.796 291.145 225.965 299.823C224.973 310.058 227.787 337.488 227.787 337.488C228.779 338.09 229.913 338.42 231.073 338.445C232.233 338.47 233.38 338.189 234.397 337.63C234.397 337.63 241.564 297.33 242.895 287.151C244.019 278.256 246.171 258.711 246.171 258.711L252.29 287.095C251.393 289.961 250.742 292.899 250.345 295.876C249.769 301.862 255.604 331.936 255.604 331.936C256.656 332.37 257.786 332.583 258.923 332.56C260.06 332.537 261.181 332.28 262.214 331.804C262.214 331.804 264.792 292.958 265.339 285.744C266.284 273.62 263.026 235.804 260.807 228.628L229.015 230.403Z" fill="#082E69"/>
<path opacity="0.2" d="M246.152 258.711L247.956 247.437C247.956 247.437 255.585 245.86 259.051 242.602C256.661 245.405 253.534 247.482 250.024 248.598L247.994 257.285L251.544 283.563L246.152 258.711Z" fill="black"/>
<path d="M231.866 192.699L239.42 194.663V178.677C235.247 177.592 231.866 179.999 231.866 184.06V192.699Z" fill="#0E53BE"/>
<path opacity="0.6" d="M231.866 192.699L239.42 194.663V178.677C235.247 177.592 231.866 179.999 231.866 184.06V192.699Z" fill="black"/>
<path d="M246.823 180.963L244.113 180.906C235.842 180.708 229.289 173.579 229.468 164.967C229.468 155.582 236.739 147.971 245.747 147.886C254.755 147.839 262.101 155.44 262.148 164.788V165.732C261.921 174.353 255.076 181.142 246.823 180.963Z" fill="#0E53BE"/>
<path opacity="0.6" d="M246.823 180.963L244.113 180.906C235.842 180.708 229.289 173.579 229.468 164.967C229.468 155.582 236.739 147.971 245.747 147.886C254.755 147.839 262.101 155.44 262.148 164.788V165.732C261.921 174.353 255.076 181.142 246.823 180.963Z" fill="black"/>
<path d="M234.161 151.805C234.095 151.531 233.973 151.273 233.804 151.048C233.634 150.824 233.419 150.636 233.174 150.498C232.929 150.36 232.657 150.274 232.377 150.245C232.097 150.216 231.814 150.246 231.545 150.332L232.272 153.164C232.122 152.973 231.936 152.813 231.725 152.692C231.48 152.554 231.208 152.468 230.928 152.441C230.648 152.414 230.365 152.446 230.098 152.535C229.831 152.624 229.586 152.768 229.378 152.957C229.17 153.147 229.005 153.379 228.892 153.636L232.574 155.799C232.766 155.43 232.851 155.014 232.82 154.599C233.347 154.379 233.775 153.972 234.022 153.457C234.269 152.942 234.318 152.354 234.161 151.805Z" fill="#0E53BE"/>
<path opacity="0.6" d="M234.161 151.805C234.095 151.531 233.973 151.273 233.804 151.048C233.634 150.824 233.419 150.636 233.174 150.498C232.929 150.36 232.657 150.274 232.377 150.245C232.097 150.216 231.814 150.246 231.545 150.332L232.272 153.164C232.122 152.973 231.936 152.813 231.725 152.692C231.48 152.554 231.208 152.468 230.928 152.441C230.648 152.414 230.365 152.446 230.098 152.535C229.831 152.624 229.586 152.768 229.378 152.957C229.17 153.147 229.005 153.379 228.892 153.636L232.574 155.799C232.766 155.43 232.851 155.014 232.82 154.599C233.347 154.379 233.775 153.972 234.022 153.457C234.269 152.942 234.318 152.354 234.161 151.805Z" fill="black"/>
<path d="M238.627 185.174C236.084 185.519 233.562 186.004 231.073 186.628C234 193.804 229.411 204.889 229.411 204.889L233.745 218.231C230.752 224.36 228.288 227.4 227.268 232.395C230.025 237.777 249.486 242.914 262.157 233.103C262.157 233.103 261.751 219.478 260.137 211.537C264.282 203.445 263.612 201.065 262.762 198.242C260.788 191.68 256.804 189.158 252.054 184.532L249.221 184.23L238.627 185.174Z" fill="#545454"/>
<path d="M234.227 223.576C236.578 221.168 241.564 220.479 241.564 220.479L236.984 217.873L231.866 205.513C234.014 201.306 235.075 196.628 234.954 191.906L232.008 191.198C232.367 197.742 229.402 204.899 229.402 204.899L233.736 218.241C230.743 224.369 228.278 227.409 227.258 232.404C229.147 236.087 238.863 239.656 248.872 238.391C235.464 237.484 231.97 225.908 234.227 223.576Z" fill="#263238"/>
<path d="M247.777 238.495L248.324 238.438C248.14 238.441 247.957 238.46 247.777 238.495Z" fill="#E6E6E6"/>
<path d="M256.067 156.252C257.691 157.744 259.721 160.973 259.561 170.415C259.419 178.441 256.936 180.434 255.68 181.01C254.424 181.586 252.016 181.255 249.665 180.859V184.182C249.665 184.182 252.762 187.619 252.573 189.848C252.384 192.076 248.154 192.973 245.104 190.792C242.956 189.165 241.048 187.242 239.439 185.079V174.986C239.439 174.986 238.06 176.392 235.662 174.277C233.774 172.521 233.056 169.556 234.557 167.951C234.943 167.571 235.416 167.291 235.934 167.137C236.453 166.982 237.002 166.958 237.532 167.065C238.063 167.172 238.559 167.408 238.977 167.752C239.395 168.096 239.722 168.537 239.93 169.037C243.529 168.661 247.032 167.65 250.279 166.053C252.105 165.175 253.629 163.775 254.659 162.03C255.69 160.286 256.179 158.275 256.067 156.252Z" fill="#FFBDA7"/>
<path d="M249.656 168.612C249.655 168.795 249.601 168.975 249.5 169.128C249.399 169.281 249.256 169.402 249.088 169.475C248.92 169.548 248.734 169.571 248.553 169.54C248.372 169.509 248.204 169.426 248.07 169.302C247.935 169.177 247.84 169.016 247.795 168.838C247.751 168.66 247.759 168.473 247.819 168.3C247.879 168.127 247.988 167.975 248.133 167.862C248.278 167.75 248.453 167.682 248.636 167.668C248.895 167.662 249.146 167.758 249.336 167.934C249.526 168.11 249.641 168.353 249.656 168.612Z" fill="#263238"/>
<path d="M250.024 175.297L252.545 176.119C252.505 176.291 252.43 176.453 252.324 176.595C252.219 176.737 252.086 176.856 251.933 176.944C251.78 177.033 251.61 177.089 251.434 177.109C251.259 177.13 251.081 177.114 250.911 177.063C250.568 176.934 250.286 176.681 250.122 176.354C249.957 176.027 249.922 175.649 250.024 175.297Z" fill="#F79776"/>
<path d="M258.777 164.996L256.483 164.212C256.519 164.059 256.587 163.915 256.682 163.79C256.777 163.664 256.898 163.561 257.036 163.485C257.174 163.409 257.326 163.363 257.483 163.35C257.64 163.337 257.798 163.357 257.946 163.409C258.256 163.525 258.512 163.751 258.665 164.043C258.819 164.336 258.858 164.675 258.777 164.996Z" fill="#263238"/>
<path d="M239.939 168.14V171.53C240.157 171.539 240.374 171.503 240.577 171.425C240.78 171.347 240.965 171.229 241.121 171.077C241.277 170.924 241.4 170.742 241.482 170.541C241.565 170.339 241.605 170.123 241.601 169.906C241.604 169.454 241.433 169.019 241.124 168.69C240.815 168.361 240.39 168.164 239.939 168.14Z" fill="#BA68C8"/>
<path opacity="0.6" d="M239.939 168.14V171.53C240.157 171.539 240.374 171.503 240.577 171.425C240.78 171.347 240.965 171.229 241.121 171.077C241.277 170.924 241.4 170.742 241.482 170.541C241.565 170.339 241.605 170.123 241.601 169.906C241.604 169.454 241.433 169.019 241.124 168.69C240.815 168.361 240.39 168.164 239.939 168.14Z" fill="black"/>
<path d="M257.946 168.281C257.967 168.553 257.879 168.822 257.702 169.029C257.525 169.236 257.273 169.365 257.002 169.386C256.794 169.407 256.584 169.364 256.401 169.265C256.217 169.165 256.067 169.013 255.97 168.828C255.874 168.642 255.835 168.432 255.858 168.225C255.882 168.017 255.967 167.821 256.103 167.662C256.239 167.503 256.419 167.389 256.621 167.333C256.822 167.277 257.036 167.283 257.234 167.35C257.432 167.416 257.605 167.54 257.732 167.707C257.859 167.873 257.934 168.073 257.946 168.281Z" fill="#263238"/>
<path d="M252.564 166.912L252.545 173.484L255.604 172.474L252.564 166.912Z" fill="#F79776"/>
<path d="M249.665 180.896C247.182 180.575 242.111 179.074 241.271 176.978C241.59 178.029 242.219 178.96 243.074 179.65C244.604 181 249.684 182.483 249.684 182.483L249.665 180.896Z" fill="#F79776"/>
<path d="M219.45 218.732C219.45 218.732 225.512 227.343 226.55 228.467C227.589 229.591 228.307 229.213 229.43 228.713C230.801 228.159 232.208 227.702 233.641 227.343C235.53 226.881 235.889 228.59 234.057 229.808C232.735 230.695 231.224 231.073 231.847 231.8C233.139 232.97 234.638 233.889 236.266 234.51C240.742 236.276 240.393 237.163 239.571 238.608C238.854 239.873 236.739 242.593 228.769 239.382C225.464 238.051 220.819 234.283 218.628 231.828C215.465 228.325 210.527 222.046 210.527 222.046L219.45 218.732Z" fill="#FFBDA7"/>
<path d="M232.235 186.316C230.044 186.458 225.918 186.987 220.743 195.579C216.201 203.133 209.167 213.34 207.864 216.995C207.335 218.477 209.393 221.546 212.047 224.69C215.663 224.53 218.959 222.027 220.668 220.026C220.219 218.961 219.662 217.945 219.006 216.995L229.619 204.889C229.619 204.889 233.651 201.197 234.491 196.391C235.398 191.179 235.114 187.081 232.235 186.316Z" fill="#545454"/>
<path d="M291.655 202.614L265.49 209.507L258.286 239.108L283.167 231.885L291.655 202.614Z" fill="#0E53BE"/>
<path opacity="0.25" d="M291.655 202.614L265.49 209.507L258.286 239.108L283.167 231.885L291.655 202.614Z" fill="black"/>
<g opacity="0.1">
<path opacity="0.1" d="M279.833 223.576C280.271 224.49 280.969 225.255 281.839 225.775C282.708 226.296 283.712 226.549 284.725 226.503L284.913 225.851L279.833 223.576Z" fill="black"/>
</g>
<g opacity="0.1">
<path opacity="0.1" d="M283.771 207.316L283.988 206.315C284.111 205.768 282.572 205.739 280.56 206.315L276.698 207.259C274.687 207.788 272.921 208.657 272.837 209.205L272.629 210.205L283.771 207.316Z" fill="black"/>
</g>
<path d="M285.782 203.568C285.858 203.218 285.234 203.124 284.394 203.36L282.864 203.785C282.864 203.785 283.318 201.622 279.937 202.378C279.03 202.511 278.172 202.877 277.448 203.44C276.723 204.002 276.156 204.742 275.801 205.588L274.177 206.051C273.233 206.306 272.459 206.787 272.355 207.127L272.157 207.75L285.64 204.2L285.782 203.568Z" fill="#37474F"/>
<path d="M283.922 204.625C282.694 204.927 282.175 205.088 282.033 205.938C281.892 206.787 281.731 207.618 281.731 207.618L275.773 209.195C275.773 209.195 276.066 207.968 276.16 207.496C276.255 207.023 276.047 206.721 275.093 206.976L275.018 206.599L284.366 204.21L283.922 204.625Z" fill="#37474F"/>
<path d="M284.13 207.401L284.347 206.4C284.47 205.853 282.93 205.824 280.919 206.4L277.057 207.344C275.046 207.873 273.28 208.742 273.195 209.29L272.988 210.29L284.13 207.401Z" fill="#37474F"/>
<path d="M288.898 212.122C288.898 212.122 287.954 215.474 287.699 216.267C287.444 217.061 284.536 218.505 282.619 219.034C280.702 219.563 278.587 220.186 279.503 222.877C280.334 225.36 283.507 225.927 285.112 225.851C286.717 225.776 288.936 224.246 289.833 221.763C290.938 218.59 290.343 215.21 290.777 213.359C291.212 211.509 289.861 211.018 288.898 212.122Z" fill="#FFBDA7"/>
<path d="M189.782 212.906C186.194 209.29 184.909 210.696 184.456 214.662C184.288 216.326 183.885 217.957 183.257 219.506C183.145 218.683 182.92 217.879 182.587 217.117C182.429 216.706 182.121 216.369 181.725 216.174C181.33 215.98 180.875 215.942 180.453 216.069C180.103 216.211 180.538 217.013 180.453 218.59C180.387 220.554 179.744 221.64 180.207 223.727C180.368 224.512 180.244 225.329 179.858 226.031C177.969 229.619 171.747 236.247 167.384 241.025L150.813 226.059C145.148 220.96 143.316 218.666 137.849 219.034C139.559 219.683 141.134 220.643 142.494 221.867C145.034 224.01 144.43 236.276 144.43 236.276C144.43 236.276 163.239 249.759 165.203 251.044C165.487 251.232 165.779 251.402 166.062 251.563C166.991 252.047 168.056 252.203 169.084 252.006C170.113 251.809 171.044 251.27 171.728 250.477C175.741 245.888 181.595 236.852 184.947 232.159C186.48 229.887 187.846 227.508 189.036 225.039C192.397 218.364 192.029 215.172 189.782 212.906Z" fill="#914F4E"/>
<path d="M138.434 218.732C139.755 218.492 141.112 218.536 142.415 218.861C143.717 219.187 144.936 219.787 145.988 220.62C149.217 223.075 162.984 235.728 162.984 235.728C162.984 235.728 163.362 242.423 156.375 246.407L139.501 234.51L138.434 218.732Z" fill="#0A3B87"/>
<path d="M122.146 369.772H114.998V382.519H122.146V369.772Z" fill="#914F4E"/>
<path d="M139.784 369.092L146.932 369.347L147.291 355.854L139.784 355.599V369.092Z" fill="#914F4E"/>
<path d="M113.988 259.4C113.988 266.51 115.036 323.74 115.036 323.74C114.876 325.78 113.034 329.557 113.431 337.413C113.969 348.092 114.696 376.126 114.696 376.126C115.924 376.755 117.279 377.096 118.658 377.124C120.037 377.152 121.404 376.866 122.656 376.287C122.656 376.287 129.417 337.432 130.701 326.856C131.815 317.622 133.713 286.537 133.713 286.537L137.584 322.683C136.759 326.569 136.461 330.548 136.697 334.514C137.037 339.405 139.331 364.89 139.331 364.89C140.567 365.621 141.954 366.061 143.386 366.175C144.818 366.29 146.257 366.076 147.593 365.551C147.593 365.551 151.654 327.168 151.739 322.683C151.833 317.565 149.359 259.306 149.359 259.306L113.988 259.4Z" fill="#8A8A8A"/>
<path d="M122.146 378.836V377.779C122.835 378.09 124.422 384.388 127.255 387.098C129.511 389.242 132.589 391.716 133.373 394.105C134.157 396.494 129.086 397.957 126.981 397.57C124.535 397.117 120.286 395.323 119.229 393.661C118.171 391.999 117.661 389.535 116.792 388.316C115.924 387.098 113.96 385.739 113.469 384.322C113.328 383.005 113.467 381.673 113.875 380.413C114.205 379.101 114.564 377.656 114.998 377.779V378.591C116.007 379.417 117.274 379.861 118.577 379.847C119.616 379.884 122.156 379.667 122.146 378.836Z" fill="#263238"/>
<path d="M147.008 367.052C147.376 367.052 147.678 367.609 148.5 368.535C149.714 369.812 151.134 370.875 152.702 371.679C155.383 373.077 160.586 375.229 162.947 376.334C164.42 377.023 164.344 378.874 162.824 379.922C161.304 380.97 157.631 381.735 153.221 380.715C150.823 380.149 147.688 377.883 145.667 377.968C143.646 378.053 140.002 378.062 138.519 377.023C137.037 375.985 137.641 373.728 138.057 371.811C138.51 369.706 139.076 366.429 139.737 366.571V367.298C140.597 368.657 145.034 369.186 146.923 368.242L147.008 367.052Z" fill="#263238"/>
<path d="M133.713 286.556C137.433 285.341 140.834 283.309 143.665 280.608C143.665 280.608 141.777 284.385 136.036 287.84L137.254 320.124L133.713 286.556Z" fill="#263238"/>
<path d="M117.708 220.62C117.708 220.62 112.119 221.13 112.515 231.791L113.752 248.787L113.639 274.281C118.889 280.239 142.202 279.805 150.181 273.8C150.181 273.8 149.359 243.65 148.821 232.046C148.434 223.802 146.536 219.648 138.434 218.741L128.463 219.176L117.708 220.62Z" fill="#0D4CAD"/>
<path opacity="0.3" d="M133.6 226.21L134.884 235.162L137.877 235.105L134.497 235.634L133.6 226.21Z" fill="black"/>
<path d="M99.9661 257.219C102.865 233.896 109.541 222.282 117.67 220.941L117.094 235.86C113.709 243.817 111.116 252.087 109.352 260.552C108.285 266.293 107.048 276.274 107.369 281.174C107.433 282.038 107.801 282.851 108.408 283.469C110.013 285.102 110.494 286.519 111.571 288.36C112.421 289.804 113.289 290.314 113.063 290.664C112.771 291.031 112.347 291.27 111.881 291.33C111.416 291.39 110.945 291.266 110.57 290.985C109.718 290.381 108.938 289.681 108.247 288.898C108.144 291.121 108.544 293.338 109.418 295.385C111.306 299.313 111.004 301.381 105.735 300.219C102.431 299.502 100.07 296.018 99.1257 287.888C98.8773 284.854 98.8237 281.807 98.9652 278.766C99.324 270.995 99.3901 261.883 99.9661 257.219Z" fill="#914F4E"/>
<path d="M118.133 220.554C113.912 220.554 110.06 221.281 106.991 227.164C104.055 232.829 101.798 244.812 100.655 248.73C100.655 248.73 106.821 252.375 112.496 252.281L116.49 238.419C116.49 238.419 119.191 231.951 118.133 220.554Z" fill="#0A3B87"/>
<path d="M126.848 196.552C126.934 198.638 127.63 200.654 128.851 202.347C130.073 204.041 131.765 205.338 133.718 206.078C135.67 206.818 137.797 206.967 139.834 206.507C141.871 206.048 143.728 205 145.174 203.493C146.62 201.987 147.592 200.089 147.968 198.035C148.343 195.981 148.107 193.862 147.289 191.941C146.47 190.02 145.104 188.382 143.362 187.231C141.62 186.08 139.578 185.466 137.49 185.467C134.61 185.529 131.872 186.73 129.877 188.809C127.882 190.887 126.793 193.672 126.848 196.552Z" fill="#263238"/>
<path d="M120.078 202.095C120.078 202.095 121.712 210.083 122.363 211.395C122.788 212.199 123.51 212.805 124.375 213.085L124.252 207.42L120.078 202.095Z" fill="#263238"/>
<path d="M122.127 190.65C122.127 190.65 120.919 190.405 119.71 192.293C118.643 193.955 118.407 197.694 120.078 202.085L123.147 202.453L122.127 190.65Z" fill="#263238"/>
<path d="M124.072 202.463C123.459 202.85 122.581 201.613 121.816 200.791C121.051 199.97 118.577 198.827 117.34 201.547C116.103 204.266 118.426 207.977 120.38 208.61C123.751 209.714 124.252 207.458 124.252 207.458L124.516 220.12C128.982 227.032 139.114 226.786 135.469 219.78V215.899C136.97 216.149 138.493 216.231 140.011 216.145C142.485 215.748 144.043 213.709 144.798 210.914C146.007 206.429 146.46 202.812 145.44 193.993C144.317 184.324 133.524 184.22 127.689 188.044C121.854 191.868 124.072 202.463 124.072 202.463Z" fill="#914F4E"/>
<path d="M124.46 217.278C125.499 219.404 126.991 221.277 128.831 222.764C130.397 223.918 132.211 224.691 134.129 225.021C132.548 226.091 131.252 227.53 130.352 229.213C129.237 231.677 121.363 224.907 121.438 220.101C121.438 220.101 122.675 215.276 124.365 214.964L124.46 217.278Z" fill="#B0B0B0"/>
<path d="M134.138 225.021C134.138 225.021 136.564 223.812 135.479 219.78V215.899L136.546 216.041C137.789 217.253 138.672 218.786 139.095 220.469C139.341 221.574 139.945 227.164 138.878 228.269C137.811 229.373 136.31 225.342 134.138 225.021Z" fill="#B0B0B0"/>
<path d="M124.072 203.549C123.761 203.549 122.58 201.519 121.816 200.791C120.749 199.781 122.127 190.65 122.127 190.65C121.849 189.862 121.797 189.012 121.977 188.196C122.158 187.38 122.563 186.631 123.147 186.033C124.61 184.362 127.047 184.145 131.201 183.503C132.86 183.298 134.506 182.999 136.13 182.606C137.845 181.964 139.496 181.161 141.059 180.207C141.551 179.888 142.14 179.755 142.721 179.829C142.989 179.92 143.229 180.079 143.416 180.291C143.603 180.503 143.732 180.761 143.788 181.038C143.882 181.591 143.882 182.156 143.788 182.709C144.313 182.221 145.01 181.96 145.727 181.985C146.444 182.01 147.122 182.318 147.612 182.842C148.076 183.394 148.378 184.064 148.484 184.777C148.591 185.49 148.498 186.219 148.216 186.883C147.613 188.204 146.626 189.313 145.384 190.065C140.162 193.596 133.996 192.614 128.142 191.953C127.865 191.891 127.577 191.911 127.311 192.01C126.367 192.426 126.197 195.268 126.036 196.089C125.564 198.827 125.111 203.53 124.072 203.549Z" fill="#263238"/>
<path d="M122.127 191.132L118.407 189.045C118.52 188.787 118.686 188.556 118.893 188.366C119.101 188.177 119.346 188.033 119.613 187.944C119.88 187.855 120.163 187.823 120.443 187.85C120.723 187.877 120.995 187.962 121.24 188.101C121.734 188.409 122.098 188.888 122.262 189.447C122.426 190.006 122.378 190.606 122.127 191.132Z" fill="#263238"/>
<path d="M135.46 215.899C135.46 215.899 129.936 214.738 128 213.671C126.852 213.043 125.92 212.082 125.328 210.914C125.616 212.086 126.133 213.19 126.848 214.162C128.255 216.05 135.46 217.438 135.46 217.438V215.899Z" fill="#783736"/>
<path d="M133.458 200.697C133.464 200.848 133.441 200.999 133.389 201.142C133.337 201.284 133.257 201.414 133.154 201.526C133.052 201.637 132.928 201.727 132.791 201.791C132.653 201.854 132.505 201.89 132.353 201.896C132.048 201.879 131.761 201.743 131.555 201.517C131.348 201.291 131.238 200.993 131.249 200.688C131.249 200.395 131.365 200.114 131.572 199.906C131.779 199.699 132.06 199.583 132.353 199.583C132.646 199.583 132.927 199.699 133.135 199.906C133.342 200.114 133.458 200.395 133.458 200.688V200.697Z" fill="#263238"/>
<path d="M131.56 195.9L129.19 197.26C129.02 196.923 128.981 196.535 129.083 196.172C129.184 195.808 129.418 195.496 129.738 195.296C129.896 195.208 130.07 195.154 130.25 195.137C130.429 195.12 130.61 195.141 130.782 195.198C130.953 195.254 131.111 195.346 131.245 195.467C131.379 195.588 131.486 195.736 131.56 195.9Z" fill="#263238"/>
<path d="M134.959 208.997L137.49 209.988C137.44 210.162 137.355 210.324 137.24 210.463C137.124 210.602 136.982 210.716 136.82 210.798C136.659 210.879 136.483 210.927 136.302 210.937C136.122 210.947 135.941 210.92 135.771 210.857C135.426 210.707 135.151 210.431 135 210.086C134.85 209.741 134.835 209.352 134.959 208.997Z" fill="#783736"/>
<path d="M144.525 197.222L142.032 196.014C142.093 195.845 142.189 195.691 142.314 195.561C142.439 195.432 142.589 195.331 142.756 195.264C142.923 195.197 143.102 195.166 143.281 195.173C143.461 195.181 143.637 195.226 143.797 195.305C144.134 195.478 144.395 195.77 144.53 196.124C144.664 196.478 144.662 196.869 144.525 197.222Z" fill="#263238"/>
<path d="M142.891 200.697C142.905 200.851 142.887 201.007 142.838 201.154C142.789 201.301 142.709 201.436 142.605 201.55C142.5 201.665 142.373 201.756 142.232 201.819C142.09 201.881 141.937 201.914 141.782 201.914C141.627 201.914 141.473 201.881 141.332 201.819C141.19 201.756 141.063 201.665 140.958 201.55C140.854 201.436 140.774 201.301 140.725 201.154C140.676 201.007 140.658 200.851 140.672 200.697C140.666 200.546 140.689 200.396 140.742 200.254C140.794 200.112 140.874 199.982 140.976 199.872C141.079 199.761 141.203 199.672 141.34 199.609C141.478 199.547 141.626 199.512 141.777 199.507C142.082 199.52 142.369 199.651 142.578 199.874C142.786 200.096 142.899 200.392 142.891 200.697Z" fill="#263238"/>
<path d="M136.612 199.838L136.735 206.835L140.71 205.928L136.612 199.838Z" fill="#783736"/>
<path d="M131.749 197.808C131.015 197.808 130.312 198.099 129.793 198.618C129.274 199.137 128.982 199.841 128.982 200.574C128.982 201.308 129.274 202.012 129.793 202.531C130.312 203.049 131.015 203.341 131.749 203.341H132.249C132.983 203.341 133.687 203.049 134.206 202.531C134.725 202.012 135.016 201.308 135.016 200.574C135.016 199.841 134.725 199.137 134.206 198.618C133.687 198.099 132.983 197.808 132.249 197.808H131.749ZM128.473 200.574C128.465 199.699 128.805 198.857 129.417 198.232C130.03 197.608 130.865 197.251 131.74 197.241H132.249C133.051 197.346 133.788 197.74 134.321 198.348C134.855 198.956 135.149 199.737 135.149 200.546C135.149 201.355 134.855 202.136 134.321 202.744C133.788 203.352 133.051 203.746 132.249 203.851H131.749C130.882 203.846 130.051 203.499 129.438 202.886C128.824 202.272 128.477 201.442 128.473 200.574Z" fill="#263238"/>
<path d="M141.692 197.808C140.958 197.808 140.254 198.099 139.736 198.618C139.217 199.137 138.925 199.841 138.925 200.574C138.925 201.308 139.217 202.012 139.736 202.531C140.254 203.049 140.958 203.341 141.692 203.341H142.192C142.926 203.341 143.63 203.049 144.149 202.531C144.667 202.012 144.959 201.308 144.959 200.574C144.959 199.841 144.667 199.137 144.149 198.618C143.63 198.099 142.926 197.808 142.192 197.808H141.692ZM138.425 200.574C138.417 199.699 138.757 198.857 139.369 198.232C139.982 197.608 140.817 197.251 141.692 197.241H142.192C142.994 197.346 143.731 197.74 144.264 198.348C144.798 198.956 145.092 199.737 145.092 200.546C145.092 201.355 144.798 202.136 144.264 202.744C143.731 203.352 142.994 203.746 142.192 203.851H141.692C140.829 203.838 140.006 203.488 139.399 202.876C138.791 202.263 138.449 201.437 138.444 200.574H138.425Z" fill="#263238"/>
<path d="M135.479 199.913C135.677 199.639 135.936 199.415 136.236 199.259C136.536 199.104 136.869 199.02 137.207 199.016C137.486 198.986 137.768 199.024 138.029 199.126C138.29 199.227 138.523 199.391 138.708 199.602L139.152 199.262C138.916 198.974 138.612 198.75 138.267 198.609C137.923 198.469 137.548 198.418 137.178 198.459C136.75 198.464 136.328 198.572 135.95 198.774C135.572 198.976 135.248 199.266 135.007 199.621L135.479 199.913Z" fill="#263238"/>
<path d="M128.775 199.885H123.147V200.442H128.775V199.885Z" fill="#263238"/>
</g>
<defs>
<clipPath id="clip0_498_1527">
<rect width="425" height="426" fill="white"/>
</clipPath>
</defs>
</svg>
